<?xml version="1.0" encoding="UTF-8"?>
<svg id="Layer_2" data-name="Layer 2" xmlns="http://www.w3.org/2000/svg" xmlns:xlink="http://www.w3.org/1999/xlink" viewBox="0 0 1051.89 162.38">
  <defs>
    <style>
      .cls-1 {
        fill: #1fe8e3;
      }

      .cls-2 {
        fill: #031d42;
      }

      .cls-3 {
        fill: none;
      }

      .cls-4 {
        fill: #02bcbc;
      }

      .cls-5 {
        fill: url(#linear-gradient);
      }
    </style>
    <linearGradient id="linear-gradient" x1="486.79" y1="-15.07" x2="511.31" y2="136.78" gradientUnits="userSpaceOnUse">
      <stop offset="0" stop-color="#031d42"/>
      <stop offset="1" stop-color="#032751"/>
    </linearGradient>
  </defs>
  <g id="Layer_1-2" data-name="Layer 1">
    <g>
      <g>
        <path class="cls-2" d="M80.69,2.79c35.45,0,50.6,21.84,50.6,46.93,0,23.7-13.76,49.25-50.6,49.25H31.71c-2.57,0-3.96,1.16-3.96,3.95v56.68H.23v-62.03c0-17.65,7.46-24.86,24.72-24.86h56.67c15.62,0,21.92-10.69,21.92-21.61s-6.76-20.91-21.69-20.91H0V2.79h80.69Z"/>
        <path class="cls-2" d="M186.32,2.79v156.81h-27.52V2.79h27.52Z"/>
        <path class="cls-2" d="M251.61,159.6h-27.52V34.15c0-20.44,11.66-34.15,36.14-34.15,21.92,0,31.72,11.15,38.24,29.04l45.94,100.12c1.87,3.72,4.9,6.51,10.03,6.51,5.83,0,9.33-3.48,9.33-8.83V2.79h27.75v125.21c0,20.68-11.89,34.38-36.14,34.38-21.92,0-31.95-11.15-38.48-29.04l-45.94-100.12c-2.1-4.65-4.9-6.74-9.79-6.74-6.3,0-9.56,3.48-9.56,9.06v124.05Z"/>
        <path class="cls-2" d="M633.02,2.79v66.44h15.16c27.05,0,31.48-2.32,40.34-19.51l24.02-46.93h29.62l-24.72,48.79c-7,13.94-14.46,23-27.28,28.57,14.69,3.95,21.92,12.08,31.25,30.2l25.42,49.25h-30.78l-24.02-46.46c-8.63-16.73-14.22-19.05-43.84-19.05h-15.16v65.51h-27.52V2.79h27.52Z"/>
        <g>
          <path class="cls-2" d="M452.27,162.38h-24.22l44.16-111.38c4.66-11.69,13.45-10.86,26.68-10.86s21.4-.84,25.87,10.86l42.49,111.38h-24.41l-38.2-100.8c-1.12-2.97-3.17-4.27-6.15-4.27s-5.03,1.3-6.33,4.27l-39.88,100.8Z"/>
          <path class="cls-3" d="M524.38,80.1c2.32-1.64,4.4-2.37,5.85-3.34.04-.03.08-.06.12-.09-.04.03-.08.06-.12.09-1.45.97-3.53,1.7-5.85,3.34Z"/>
          <g>
            <path class="cls-3" d="M461.37,89.94s.09.07.14.1c1.57,1.05,3.8,1.85,6.29,3.55-2.49-1.7-4.72-2.51-6.29-3.55-.05-.03-.09-.06-.14-.1Z"/>
            <path class="cls-3" d="M486.6,139.06c.77.54,1.4,1.4,1.7,2.46.59,2.12-.36,4.24-2.13,4.73-.88.25-1.81.04-2.58-.5.77.54,1.7.74,2.58.5,1.77-.49,2.72-2.61,2.13-4.73-.3-1.06-.92-1.92-1.7-2.46Z"/>
            <path class="cls-3" d="M466.22,82.44c-4.42-3.18-8.38-6.62-8.79-12.44h0c-.01-.13-.03-.24-.03-.36-.02-.24-.03-.48-.03-.72,0,0,0,0,0,0,0,.25,0,.48.03.72,0,.12.02.23.03.35h0c.41,5.83,4.37,9.27,8.79,12.45,4.42,3.18,9.31,6.11,11.59,10.94,2.43,5.15,3.57,21.2,1.54,26.95-.1.28-1.98,4.25-2.58,3.77.6.48,2.48-3.48,2.58-3.77,2.02-5.75.88-21.8-1.54-26.95-2.28-4.83-7.17-7.76-11.59-10.94Z"/>
            <path class="cls-3" d="M468.14,93.83c-.11-.08-.21-.15-.32-.22.11.07.21.15.32.22Z"/>
            <path class="cls-3" d="M509.12,146.25c-1.77-.49-2.72-2.61-2.13-4.73.3-1.06.92-1.92,1.7-2.46-.77.54-1.4,1.4-1.7,2.46-.59,2.12.36,4.24,2.13,4.73.88.25,1.81.04,2.58-.5-.77.53-1.69.74-2.58.5Z"/>
            <path class="cls-3" d="M515.92,120.33c-2.02-5.75-.88-21.8,1.54-26.95,2.28-4.82,7.17-7.76,11.59-10.94,4.42-3.18,8.38-6.62,8.79-12.44h0c.01-.13.03-.24.03-.36.02-.24.03-.47.03-.72,0,0,0,0,0,0,0,.25,0,.48-.03.72,0,.12-.02.23-.03.35h0c-.41,5.83-4.37,9.27-8.79,12.45-4.42,3.18-9.31,6.11-11.59,10.94-2.43,5.15-3.57,21.2-1.54,26.95.1.28,1.98,4.25,2.58,3.77-.6.48-2.48-3.48-2.58-3.77Z"/>
            <path class="cls-1" d="M538.96,107.97c-1.05,2.28-2.3,4.51-3.68,6.7-1.32,2.08-6.02,7.55-9.05,11.37-.06.07-.11.14-.16.2-1.33,1.69-2.31,3.03-2.47,3.55-.25.87-.22,1.86-.03,2.96,5.45-7.05,10.89-14.18,16.25-21.53v-5.22c-.17.43-.36.86-.54,1.28-.1.23-.21.46-.31.69Z"/>
            <path class="cls-1" d="M471.67,129.8c-.15-.52-1.13-1.86-2.47-3.55-.05-.07-.11-.14-.16-.2-3.03-3.82-7.73-9.29-9.05-11.37-1.38-2.19-2.63-4.42-3.68-6.7-.11-.23-.21-.46-.31-.69-.19-.43-.37-.85-.54-1.28v5.22c5.36,7.35,10.8,14.48,16.25,21.53.18-1.1.22-2.09-.03-2.96Z"/>
            <path class="cls-4" d="M486.16,146.25c1.77-.49,2.72-2.61,2.13-4.73-.3-1.06-.92-1.92-1.7-2.46-.77-.53-1.69-.74-2.58-.5-1.77.49-2.72,2.61-2.13,4.73.3,1.06.92,1.92,1.7,2.46.77.53,1.69.74,2.58.5Z"/>
            <path class="cls-4" d="M479.36,120.33c2.02-5.75.88-21.8-1.54-26.95-2.28-4.82-7.17-7.76-11.59-10.94-4.42-3.18-8.38-6.62-8.79-12.44h0c-.01-.13-.03-.24-.03-.36-.02-.24-.03-.47-.03-.72-1.42,13.03,1.04,18.92,3.99,21.02.05.03.09.07.14.1,1.57,1.05,3.8,1.85,6.29,3.55,0,0,.02.01.02.02.11.07.21.15.32.22,1.03.73,2.1,1.62,3.18,2.75.98,1.02,1.88,2.34,2.66,4.17,3.34,7.81,2.69,14.91,2.67,23.12.03.11.07.18.12.22.6.48,2.48-3.48,2.58-3.77Z"/>
            <path class="cls-4" d="M506.99,141.52c-.59,2.12.36,4.24,2.13,4.73.88.25,1.81.04,2.58-.5.77-.53,1.4-1.4,1.7-2.46.59-2.12-.36-4.24-2.13-4.73-.88-.25-1.81-.04-2.58.5-.77.54-1.4,1.4-1.7,2.46Z"/>
            <path class="cls-4" d="M537.88,69.64c0,.12-.02.23-.03.35h0c-.41,5.83-4.37,9.27-8.79,12.45-4.42,3.18-9.31,6.11-11.59,10.94-2.43,5.15-3.57,21.2-1.54,26.95.1.28,1.98,4.25,2.58,3.77.05-.04.09-.11.12-.22-.02-8.22-.67-15.31,2.67-23.12.78-1.83,1.68-3.15,2.66-4.17,1.09-1.14,2.17-2.03,3.21-2.76,2.62-1.86,4.97-2.68,6.61-3.78.05-.03.09-.06.14-.1,2.95-2.1,5.41-7.99,3.99-21.02,0,.25,0,.48-.03.72Z"/>
            <path class="cls-5" d="M576.87,70.65c-8.52,2.08-14.97,1.02-19.33.42-2.65-.36-8.23-1.4-16.22-1.46-.65,0-1.26-.16-1.82-.32,12.58-3.04,35.35-14.18,38.05-26.99,1.47-7,1.44-10.01-1.67-15.68-4.87-8.85-10.24-17.94-18.46-23.83,3.68,10.46,10.94,23.46,1.37,32.97-5.4,5.34-17.15,9.53-24.63,7.55-2.91-.77-4.98-3.76-7.65-4.83-7.08-2.84-19.83-.12-27.43-.05-.41,0-.83-.02-1.27-.03h-.34c-.44.01-.86.03-1.27.03-7.59-.06-20.34-2.79-27.43.05-2.68,1.08-4.74,4.07-7.65,4.83-7.48,1.98-19.22-2.2-24.63-7.55-9.58-9.5-2.32-22.51,1.37-32.97-8.23,5.89-13.59,14.98-18.46,23.83-3.11,5.66-3.14,8.68-1.67,15.68,2.7,12.81,25.47,23.95,38.05,26.99-.56.16-1.17.32-1.82.32-7.99.07-13.58,1.1-16.22,1.46-4.36.6-10.8,1.66-19.33-.42l-1.64-.55c7.07,14.78,21.72,19.29,37.18,16.35-1.26,4.62-1.27,9.03-.41,13.27.37,1.82.9,3.6,1.55,5.36.12.31.24.62.37.93.17.43.36.86.54,1.28.1.23.21.46.31.69,1.05,2.28,2.3,4.51,3.68,6.7,1.32,2.08,6.02,7.55,9.05,11.37.06.07.11.14.16.2,1.33,1.69,2.31,3.03,2.47,3.55.25.87.22,1.86.03,2.96-.01.08-.03.16-.04.25-.06.34-.14.69-.23,1.06-.6,2.53-1.61,5.5-1.61,8.69,0,2.13.46,4.37,1.81,6.62,2.62,4.39,19.28,12.36,24.79,12.9.37.08.76.11,1.15.11h.13c.4,0,.78-.04,1.15-.11,5.51-.54,22.17-8.51,24.79-12.9,1.35-2.26,1.81-4.49,1.81-6.62,0-3.19-1.02-6.16-1.61-8.69-.09-.36-.17-.72-.23-1.06-.02-.08-.03-.16-.04-.25-.18-1.1-.22-2.09.03-2.96.15-.52,1.13-1.86,2.47-3.55.05-.07.11-.14.16-.2,3.03-3.82,7.73-9.29,9.05-11.37,1.38-2.19,2.63-4.42,3.68-6.7.11-.23.21-.46.31-.69.19-.43.37-.86.54-1.28.13-.31.25-.62.37-.93.66-1.76,1.19-3.54,1.55-5.36.86-4.23.85-8.64-.41-13.27,15.47,2.94,30.11-1.57,37.18-16.35l-1.64.55ZM479.36,120.33c-.1.28-1.98,4.25-2.58,3.77-.05-.04-.09-.11-.12-.22.02-8.22.67-15.31-2.67-23.12-.78-1.83-1.68-3.15-2.66-4.17-1.08-1.13-2.15-2.02-3.18-2.75-.11-.08-.21-.15-.32-.22,0,0-.02-.01-.02-.02-2.49-1.7-4.72-2.51-6.29-3.55-.05-.03-.09-.06-.14-.1-2.95-2.1-5.41-7.99-3.99-21.02,0,0,0,0,0,0,0,.25,0,.48.03.72,0,.12.02.23.03.35h0c.41,5.83,4.37,9.27,8.79,12.45,4.42,3.18,9.31,6.11,11.59,10.94,2.43,5.15,3.57,21.2,1.54,26.95ZM486.16,146.25c-.88.25-1.81.04-2.58-.5-.77-.53-1.4-1.4-1.7-2.46-.59-2.12.36-4.24,2.13-4.73.88-.25,1.81-.04,2.58.5.77.54,1.4,1.4,1.7,2.46.59,2.12-.36,4.24-2.13,4.73ZM509.12,146.25c-1.77-.49-2.72-2.61-2.13-4.73.3-1.06.92-1.92,1.7-2.46.77-.53,1.69-.74,2.58-.5,1.77.49,2.72,2.61,2.13,4.73-.3,1.06-.92,1.92-1.7,2.46-.77.54-1.7.74-2.58.5ZM515.92,120.33c-2.02-5.75-.88-21.8,1.54-26.95,2.28-4.83,7.17-7.76,11.59-10.94,4.42-3.18,8.38-6.62,8.79-12.44h0c.01-.13.03-.24.03-.36.02-.24.03-.48.03-.72,0,0,0,0,0,0,1.42,13.03-1.04,18.92-3.99,21.02-.05.03-.09.07-.14.1-1.64,1.09-3.99,1.92-6.61,3.77-1.04.73-2.11,1.63-3.21,2.76-.98,1.02-1.88,2.34-2.66,4.17-3.34,7.81-2.69,14.91-2.67,23.12-.03.11-.07.18-.12.22-.6.48-2.48-3.48-2.58-3.77Z"/>
          </g>
        </g>
      </g>
      <g>
        <path class="cls-4" d="M771.11,55.63h26.62c27.4,0,35.32,9.87,35.32,33.25v38.18c0,23.64-7.92,33.76-35.06,33.76h-26.88V55.63ZM797.99,144.72c10.52,0,11.17-4.54,11.17-14.03v-45.84c0-9.22-1.04-12.99-11.3-12.99h-3.51v72.85h3.64Z"/>
        <path class="cls-4" d="M845.78,127.71v-39.09c0-21.69,7.92-34.41,31.56-34.41s31.82,12.73,31.82,34.41v39.09c0,21.69-8.05,34.67-31.82,34.67s-31.56-12.99-31.56-34.67ZM885.39,133.55v-50.65c0-6.23-.78-12.34-8.05-12.34-6.88,0-7.79,6.1-7.79,12.34v50.65c0,5.97.52,12.34,7.79,12.34s8.05-6.36,8.05-12.34Z"/>
        <path class="cls-4" d="M921.89,127.32v-37.92c0-21.82,7.53-35.19,31.56-35.19s30.26,12.47,30.26,30.39v9.09h-22.72v-10.52c0-6.1-.13-12.6-7.53-12.6s-8.05,6.62-8.05,12.99v49.48c0,7.14,1.17,12.86,8.05,12.86,7.27,0,7.53-6.49,7.53-12.86v-11.04h22.72v9.09c0,17.92-6.75,31.3-30.26,31.3s-31.56-13.77-31.56-35.06Z"/>
        <path class="cls-4" d="M994.1,129.01l19.87-2.99c.26,13.64,3.38,18.7,9.22,18.7,4.81,0,5.84-4.03,5.84-7.66,0-8.7-4.42-13.89-11.56-20l-9.09-7.92c-8.05-6.75-14.15-14.68-14.15-27.4,0-17.79,11.3-27.53,29.48-27.53,22.47,0,25.71,17.53,26.1,29.87l-20,2.47c-.26-9.35-.91-15.32-6.88-15.32-4.29,0-6.23,4.54-6.23,8.18,0,7.79,4.03,11.95,10.13,17.27l8.7,7.66c9.09,7.79,16.36,17.01,16.36,31.56s-10.78,26.49-27.53,26.49c-19.87,0-29.48-10-30.26-33.38Z"/>
      </g>
    </g>
  </g>
</svg>